<?xml version="1.0" standalone="no"?>
<!DOCTYPE svg PUBLIC "-//W3C//DTD SVG 20010904//EN"
 "http://www.w3.org/TR/2001/REC-SVG-20010904/DTD/svg10.dtd">
<svg version="1.0" xmlns="http://www.w3.org/2000/svg"
 width="500.000000pt" height="500.000000pt" viewBox="0 0 500.000000 500.000000"
 preserveAspectRatio="xMidYMid meet">

<g transform="translate(0.000000,500.000000) scale(0.100000,-0.100000)"
fill="#000000" stroke="none">
<path d="M2195 4622 c-1209 -1241 -1849 -1898 -1964 -2015 l-136 -138 70 -67
c39 -37 246 -238 460 -447 215 -209 729 -711 1144 -1115 414 -404 757 -735
761 -735 10 0 2365 2414 2365 2425 0 4 -391 389 -870 855 -478 467 -1024 998
-1211 1182 -188 183 -343 333 -345 333 -2 -1 -125 -126 -274 -278z m25 -1850
c0 -522 -2 -627 -15 -677 -61 -233 -267 -375 -545 -375 -207 0 -371 74 -459
207 -39 59 -71 160 -71 224 l0 49 170 0 170 0 6 -27 c26 -119 88 -173 198
-173 66 0 102 12 139 48 64 60 62 36 65 720 l3 622 169 0 170 0 0 -618z m1300
8 c0 -406 -4 -627 -11 -662 -28 -133 -128 -268 -246 -331 -124 -66 -324 -86
-475 -48 -220 57 -336 187 -363 409 l-6 52 176 0 c133 0 175 -3 175 -12 0 -35
25 -92 53 -125 40 -46 82 -63 152 -63 93 0 145 33 182 115 17 37 18 89 21 658
l3 617 170 0 169 0 0 -610z"/>
</g>
</svg>
